<?xml version="1.0" standalone="no"?>
<!DOCTYPE svg PUBLIC "-//W3C//DTD SVG 20010904//EN"
 "http://www.w3.org/TR/2001/REC-SVG-20010904/DTD/svg10.dtd">
<svg version="1.0" xmlns="http://www.w3.org/2000/svg"
 width="256.000000pt" height="256.000000pt" viewBox="0 0 256.000000 256.000000"
 preserveAspectRatio="xMidYMid meet">
<metadata>
Created by potrace 1.11, written by Peter Selinger 2001-2013
</metadata>
<g transform="translate(0.000000,256.000000) scale(0.100000,-0.100000)"
fill="#000000" stroke="none">
<path d="M0 1280 l0 -1280 1280 0 1280 0 0 1280 0 1280 -1280 0 -1280 0 0
-1280z m1825 810 c-3 -5 -7 -81 -8 -167 -2 -87 -6 -168 -11 -180 -6 -18 -5
-23 7 -23 8 0 17 6 19 12 3 7 5 -5 6 -27 1 -21 -4 -42 -10 -47 -7 -4 -9 -10
-6 -14 4 -3 15 1 24 10 9 9 14 20 10 23 -7 7 13 33 25 33 5 0 9 -5 9 -11 0 -5
-4 -7 -10 -4 -6 3 -10 -4 -10 -17 0 -33 -37 -63 -56 -47 -9 7 -13 21 -11 31 3
11 0 18 -9 18 -8 0 -14 -5 -14 -12 0 -6 -7 -20 -17 -30 -14 -16 -15 -18 0 -18
9 0 19 5 22 10 6 10 35 -11 35 -26 0 -4 7 -16 17 -26 11 -13 12 -18 3 -18 -9
0 -10 -3 -1 -13 6 -8 7 -18 3 -22 -4 -5 -2 -5 5 -1 7 4 10 14 7 24 -5 14 -3
14 10 -2 9 -11 16 -15 16 -9 0 7 -4 14 -8 17 -16 9 -11 61 7 85 18 23 19 23
42 7 13 -9 31 -16 41 -16 10 0 18 -5 18 -11 0 -5 5 -7 10 -4 6 4 8 10 5 15 -3
4 1 11 7 14 7 3 0 2 -17 -1 -28 -6 -29 -5 -15 12 8 10 10 16 3 12 -7 -5 -16 1
-23 13 -6 12 -7 20 -1 20 5 0 11 -6 14 -12 2 -7 8 -10 12 -6 11 11 -4 28 -26
28 -11 0 -19 -7 -19 -17 0 -15 -2 -14 -14 3 -13 17 -12 21 2 37 20 23 58 45
48 28 -4 -6 -2 -11 4 -11 7 0 10 -7 6 -15 -3 -8 -1 -15 4 -15 5 0 10 -6 13
-12 2 -7 2 -2 0 11 -4 21 -2 23 11 12 9 -7 13 -18 9 -25 -4 -6 2 -4 12 4 17
14 18 13 12 -8 -5 -21 -3 -23 18 -18 18 5 24 1 29 -18 3 -14 13 -32 21 -40 14
-14 14 -18 0 -46 -10 -19 -20 -28 -28 -23 -7 4 -7 0 2 -10 18 -23 5 -22 -25 2
-14 11 -20 22 -15 25 5 3 11 3 14 -1 2 -5 2 -2 1 5 -2 6 1 12 5 12 5 0 12 -6
14 -12 4 -10 6 -10 6 0 1 19 -27 26 -46 11 -17 -14 -20 -14 -40 3 -9 7 -13 7
-13 -1 0 -10 13 -15 33 -12 4 0 7 -3 7 -8 0 -13 -54 -11 -62 3 -6 8 -8 7 -8
-2 0 -7 -5 -10 -10 -7 -8 5 -8 11 0 20 9 11 7 12 -9 8 -12 -3 -18 -10 -14 -17
4 -6 0 -5 -9 2 -11 9 -18 10 -23 2 -9 -14 4 -32 17 -24 6 4 3 -4 -8 -18 -10
-15 -21 -22 -22 -17 -2 5 -8 7 -12 4 -5 -3 -7 -12 -3 -20 3 -8 1 -15 -5 -15
-5 0 -9 -8 -8 -17 1 -22 -18 -30 -22 -10 -2 8 4 22 13 30 10 11 12 18 4 22
-12 8 -38 -23 -39 -47 0 -9 -4 -20 -10 -23 -5 -3 -10 -31 -10 -61 0 -31 4 -53
9 -50 5 4 11 1 13 -6 3 -8 7 -6 11 5 3 9 2 17 -3 17 -13 0 -13 47 0 55 6 3 11
-2 11 -12 1 -10 5 -4 9 12 4 17 8 -55 9 -167 1 -152 -2 -198 -11 -198 -10 0
-10 -2 0 -8 22 -15 4 -72 -24 -72 -23 0 -16 40 9 50 l22 9 -22 0 c-12 1 -25 5
-28 11 -3 5 0 7 8 4 10 -4 13 3 9 26 -5 33 -4 32 -26 24 -20 -8 -21 -48 -1
-64 10 -9 12 -17 5 -30 -5 -9 -6 -20 -3 -24 3 -3 -35 -6 -85 -6 -77 0 -92 3
-92 16 0 8 -3 13 -7 11 -5 -3 -9 6 -9 19 -1 13 1 22 5 19 4 -2 4 17 0 43 -4
26 -8 226 -8 445 -1 391 -1 399 19 404 21 6 27 19 10 25 -14 4 -31 66 -19 73
5 4 9 2 9 -3 0 -5 7 -9 15 -9 8 0 12 3 10 7 -2 3 5 11 16 18 20 13 26 4 9 -16
-7 -8 -7 -9 1 -3 7 6 21 6 34 1 24 -9 53 9 38 23 -10 10 10 8 27 -3 13 -9 13
-10 0 -10 -13 0 -13 -1 0 -10 12 -8 11 -10 -5 -8 -11 2 -21 -1 -23 -7 -1 -5 9
-11 23 -13 22 -3 25 0 25 27 0 22 -5 31 -16 31 -31 0 -9 33 31 46 22 6 41 12
43 13 2 1 0 -3 -3 -9z m13 -177 c-2 -170 -6 -150 -10 55 -2 61 0 112 5 112 4
0 6 -75 5 -167z m-117 134 c-6 -8 -8 -17 -4 -20 10 -10 -20 -8 -37 3 -12 7
-10 11 10 19 35 14 44 13 31 -2z m-517 -237 c43 -13 119 -78 144 -124 41 -76
42 -92 42 -662 0 -450 -2 -554 -13 -563 -11 -8 -37 -1 -112 29 -55 22 -109 47
-122 55 l-23 15 0 454 c0 249 -3 467 -6 483 -3 16 -14 40 -24 53 -16 22 -27
25 -79 25 -49 0 -64 -4 -85 -24 -51 -48 -56 -91 -56 -496 0 -248 -4 -375 -11
-382 -7 -7 -42 3 -116 34 -59 24 -113 49 -120 55 -19 15 -19 901 0 915 6 5 59
26 116 46 106 37 131 37 131 0 0 -9 20 3 51 31 31 28 67 50 92 56 23 6 47 13
52 15 15 6 94 -3 139 -15z m810 -45 c-10 -7 -22 -11 -27 -8 -12 7 0 19 23 20
21 2 21 1 4 -12z m68 -25 c-4 -41 -32 -59 -32 -21 0 11 -5 23 -10 26 -15 9 7
35 29 35 13 0 16 -8 13 -40z m133 2 c5 -12 13 -22 18 -22 4 0 5 5 1 12 -4 7
-3 8 5 4 18 -12 -6 -35 -29 -29 -20 5 -28 23 -10 23 5 0 7 7 4 15 -6 14 -8 13
-21 -2 -8 -10 -11 -12 -8 -5 5 10 2 13 -11 10 -11 -2 -19 -10 -19 -18 0 -24
45 -69 62 -63 9 4 22 -2 29 -12 13 -18 14 -17 14 9 0 18 -4 25 -12 20 -7 -4
-8 -3 -4 4 5 8 13 9 25 2 10 -5 21 -7 24 -4 3 3 8 0 13 -7 4 -8 3 -10 -4 -5
-7 4 -12 3 -12 -1 0 -5 10 -13 23 -18 12 -6 20 -13 17 -16 -3 -3 1 -13 8 -22
9 -10 10 -17 2 -22 -6 -4 -9 -1 -8 7 4 16 -35 23 -58 10 -14 -8 -12 -11 14
-23 36 -16 59 -48 43 -59 -7 -3 -15 -24 -18 -45 -5 -31 -3 -37 8 -33 12 5 14
-25 14 -183 0 -144 -3 -190 -13 -194 -24 -9 -32 46 -32 216 0 113 -3 168 -10
164 -13 -8 -13 -425 0 -425 5 0 13 8 19 18 11 19 20 20 32 1 19 -32 24 17 24
242 0 131 3 239 8 239 4 0 7 -109 7 -243 0 -181 -3 -246 -12 -256 -9 -10 -9
-12 -1 -7 8 4 11 -1 9 -17 -5 -45 -12 -48 -124 -46 -64 1 -99 5 -90 10 13 7
15 44 17 236 1 125 -2 233 -6 240 -5 6 -7 -66 -5 -160 2 -93 0 -182 -5 -196
-5 -16 -10 46 -13 169 l-6 195 -2 -207 c-1 -132 2 -209 8 -213 6 -4 7 -11 4
-17 -4 -6 -1 -14 6 -18 9 -6 8 -11 -7 -18 -19 -11 -20 -6 -22 219 -1 127 -4
240 -6 251 -3 14 0 18 11 14 9 -3 12 -1 9 4 -3 6 -13 10 -21 10 -8 0 -13 4 -9
10 3 5 13 7 23 4 14 -5 14 -4 2 4 -8 6 -17 9 -21 6 -4 -2 -11 0 -14 6 -4 6 -1
9 5 8 7 -2 23 17 37 42 23 43 40 51 54 28 4 -7 9 -6 13 1 9 14 -1 31 -18 31
-8 0 -30 18 -51 41 -27 30 -35 47 -31 63 3 11 6 26 6 32 0 6 10 9 24 7 13 -3
27 0 30 6 10 15 49 -2 61 -27z m60 -32 c3 -5 1 -10 -4 -10 -6 0 -11 5 -11 10
0 6 2 10 4 10 3 0 8 -4 11 -10z m-1836 -114 c9 -11 12 -109 10 -368 -1 -297
-4 -356 -16 -370 -17 -18 -22 -17 -119 27 -30 14 -58 25 -63 25 -5 0 -20 9
-35 21 l-26 20 0 279 0 279 26 20 c15 12 34 21 44 21 9 0 20 3 23 7 7 6 124
50 138 52 4 1 12 -5 18 -13z m1861 4 c0 -5 -2 -10 -4 -10 -3 0 -8 5 -11 10 -3
6 -1 10 4 10 6 0 11 -4 11 -10z m47 -52 c-3 -8 -6 -5 -6 6 -1 11 2 17 5 13 3
-3 4 -12 1 -19z m-197 -498 c0 -5 -4 -10 -10 -10 -5 0 -10 5 -10 10 0 6 5 10
10 10 6 0 10 -4 10 -10z"/>
<path d="M1668 1981 c-16 -9 -28 -19 -28 -22 0 -10 40 -3 51 8 20 20 4 29 -23
14z"/>
<path d="M1729 1953 c-1 -5 -1 -11 0 -15 0 -4 -5 -5 -13 -2 -8 3 -17 1 -21 -5
-8 -15 15 -14 48 2 32 14 35 27 7 27 -11 0 -21 -3 -21 -7z"/>
<path d="M1763 1845 c0 -44 2 -61 4 -37 2 23 2 59 0 80 -2 20 -4 1 -4 -43z"/>
<path d="M1930 1730 l-25 -21 28 12 c15 7 27 16 27 21 0 11 -1 10 -30 -12z"/>
<path d="M1750 1710 c0 -11 7 -20 15 -20 8 0 15 9 15 20 0 11 -7 20 -15 20 -8
0 -15 -9 -15 -20z"/>
<path d="M1895 1619 c-4 -6 -5 -13 -2 -16 7 -7 27 6 27 18 0 12 -17 12 -25 -2z"/>
<path d="M1765 1592 c-6 -4 -11 -19 -13 -33 -2 -19 2 -28 16 -31 16 -5 18 0
17 29 -3 38 -6 45 -20 35z"/>
<path d="M1804 1569 c-3 -6 0 -18 9 -26 13 -13 14 -12 10 11 -6 29 -9 31 -19
15z"/>
<path d="M1757 1494 c-8 -8 1 -24 14 -24 5 0 9 7 9 15 0 15 -12 20 -23 9z"/>
<path d="M1760 1450 c0 -5 5 -10 10 -10 6 0 10 5 10 10 0 6 -4 10 -10 10 -5 0
-10 -4 -10 -10z"/>
<path d="M1763 1200 c0 -41 2 -58 4 -37 2 20 2 54 0 75 -2 20 -4 3 -4 -38z"/>
<path d="M1823 1200 c0 -41 2 -58 4 -37 2 20 2 54 0 75 -2 20 -4 3 -4 -38z"/>
<path d="M1800 980 c0 -5 5 -10 10 -10 6 0 10 5 10 10 0 6 -4 10 -10 10 -5 0
-10 -4 -10 -10z"/>
<path d="M2260 1654 c0 -17 6 -21 33 -21 32 -1 32 -1 7 10 -14 6 -28 16 -32
22 -4 5 -8 1 -8 -11z"/>
<path d="M2210 1614 c0 -3 4 -13 9 -22 5 -9 11 -36 14 -60 4 -39 25 -81 28
-56 4 34 -5 90 -14 96 -7 4 -8 8 -4 8 11 0 -12 40 -23 40 -6 0 -10 -3 -10 -6z"/>
<path d="M2140 1556 c0 -8 4 -26 9 -40 7 -17 7 -26 -2 -30 -9 -3 -9 -5 1 -5 6
-1 12 -10 12 -20 0 -11 5 -23 11 -26 17 -11 8 98 -10 113 -14 10 -13 11 4 6
16 -5 17 -4 5 5 -21 15 -30 14 -30 -3z"/>
<path d="M2200 1506 c0 -19 5 -38 10 -41 6 -4 10 8 10 29 0 19 -4 38 -10 41
-6 4 -10 -8 -10 -29z"/>
<path d="M2189 1110 c-1 -14 -2 -51 -3 -82 -1 -55 0 -58 23 -58 24 0 24 1 5
14 -17 13 -18 18 -7 46 9 24 9 39 -2 68 -12 33 -14 34 -16 12z"/>
<path d="M2323 998 c1 -15 6 -23 11 -18 4 4 4 16 -2 26 -9 16 -10 14 -9 -8z"/>
<path d="M2260 980 c0 -5 5 -10 10 -10 6 0 10 5 10 10 0 6 -4 10 -10 10 -5 0
-10 -4 -10 -10z"/>
</g>
</svg>
